<svg height="70" width="60.556" xmlns="http://www.w3.org/2000/svg"><path d="m-124.40135 538.72727c-2.6275-3.62749-4.7772-6.66303-4.7772-6.74563 0-.10374.8936-.1502 2.8888-.1502h2.8889l.036-6.22784.036-6.22783h3.5784 3.5785l.036 6.22783.036 6.22784h3.0035c1.652 0 3.0386.035 3.0813.0777.073.0729-8.8795 12.64647-9.3778 13.17103-.2175.22898-.4974-.12599-5.0076-6.3529zm-14.8096-9.86578c-.4612-.34662-1.0256-.85733-1.2544-1.13491l-.416-.50469.036-3.92306.036-3.92306 3.6816-.0367 3.6817-.0367v1.37856 1.37857h3.716 3.7161v3.71606 3.71605h-6.1798-6.1798l-.8383-.63021zm25.4471-3.08585v-3.71605h12.3974 12.397397l-.045-2.64941c-.041-2.41427-.072-2.70439-.3526-3.26876-.3297-.66384-.9099-1.13105-1.8553-1.49398-.5139-.19731-1.3403-.22641-6.428-.22641h-5.838197l.058-1.7204c.2302-6.86199-.5043-11.58263-2.3875-15.34594-1.5335-3.06439-3.4089-4.928-6.3976-6.35739l-1.5484-.74051v-3.50468c0-2.95629.031-3.50467.1979-3.50467.9877 0 3.9606 1.03184 6.0059 2.08458 4.382 2.25543 7.807397 6.14006 9.769497 11.07942 1.1397 2.86905 1.9512 6.30602 2.3024 9.75168l.098.96342 2.1333.0867c2.5237.10255 3.8724.40443 5.7117 1.27852 2.3813 1.13168 3.8557 2.56837 4.9549 4.82823.9629 1.97953 1.0321 2.55567 1.0321 8.60442v5.24405l-.7088.74942c-.3898.41217-.9888.93491-1.3311 1.16163l-.6223.41221h-14.7719-14.771797v-3.71605zm-27.5384-10.49855c-.2561-.17259-.543-.46678-.6376-.65375-.1326-.26205-.1725-2.5192-.1741-9.85059v-9.51064l.3124-.46766c.6737-1.00851-.2127-.94891 14.1176-.94915 11.6462-.00014 12.883.0208 13.2284.22489.8692.51343.8313.0281.8313 10.64146 0 10.46137.022 10.14988-.7451 10.65236-.3155.20673-1.5062.22689-13.4058.22689h-13.0595l-.4656-.31381zm24.9234-9.06648c0-6.29949-.012-6.61736-.2408-6.41979-.2827.24393-9.4951 7.44322-10.2554 8.01433-.4362.3277-.6128.37833-1.1198.32119-.5338-.0602-1.2023-.52125-5.912-4.07784-2.9206-2.20549-5.3431-4.00999-5.3833-4.00999-.04 0-.073 2.87994-.073 6.39988v6.39987h11.4923 11.4922v-6.62765zm-5.7172-5.41512 5.3289-4.12896-5.3799-.036c-2.959-.0198-7.8095-.0198-10.7789 0l-5.3991.036 5.3491 4.16855c2.942 2.2927 5.3945 4.15073 5.45 4.12895.056-.0218 2.499-1.89762 5.4299-4.16854zm-18.708-17.10075c.089-6.30102.1532-7.19169.5654-7.8207.5022-.76641.1909-.74705 11.9755-.74484 8.339.002 10.9287.0414 11.1829.17204.1819.0935.4607.34481.6193.55847.2828.38067.2893.52759.3267 7.32889l.038 6.94043h-3.7198-3.7197v-3.78488-3.78487h-4.9548-4.9547v3.78487 3.78488h-3.7248-3.7248l.091-6.43429z" fill="#00bcf2" transform="translate(142.114 -475.129)"/></svg>