<?xml version="1.0" encoding="utf-8"?>
<!-- Generator: Adobe Illustrator 25.2.1, SVG Export Plug-In . SVG Version: 6.00 Build 0)  -->
<svg version="1.1" id="Layer_1" xmlns="http://www.w3.org/2000/svg" xmlns:xlink="http://www.w3.org/1999/xlink" x="0px" y="0px"
	 viewBox="0 0 214.6 240.4" style="enable-background:new 0 0 214.6 240.4;" xml:space="preserve">
<style type="text/css">
	.st0{fill:#EC696A;}
</style>
<g>
	<path class="st0" d="M205.2,204.7c6.1-8.1,9.4-17.8,9.4-28c0-15.9-8-29.9-20.1-38.2c-2.4-1.7-5-3.1-7.7-4.2
		c-2.7-1.2-5.6-2.1-8.6-2.7c-3-0.6-6-0.9-9.2-0.9c-26.3,0-40.9,23.5-42.4,26.1l-6.5,9.8l-32.6-45.5l31.2-46.8l12.8,17.8
		c0,0,0,0,0.1,0.1c0,0,0,0,0,0.1c8.7,11.3,21.9,17.9,36.1,17.9c25.2,0,45.6-20.6,45.6-46c0-5.5-1-11-2.9-16.1s-4.7-9.9-8.3-14.1l0,0
		c-2.7-3.2-5.9-5.9-9.3-8.2C171.6,8.9,146.1,0,119.2,0C53.5,0,0,53.9,0,120.2c0,41.5,20.8,79.6,55.7,101.7
		c19,12.1,40.9,18.5,63.4,18.5c10.9,0,27.5-1.2,44.5-7.1C181.4,227.2,195.3,217.6,205.2,204.7z M167.6,99.4c-10.9,0-21-5-27.7-13.7
		l-15-20.8l11.9-17.8c0.1-0.1,0.1-0.2,0.2-0.3l0,0c0.2-0.4,0.4-0.7,0.7-1.1c0.2-0.3,0.4-0.7,0.6-1c0.2-0.4,0.5-0.7,0.7-1
		s0.4-0.6,0.6-0.9c0.2-0.3,0.5-0.6,0.7-0.9c0.2-0.3,0.5-0.6,0.7-0.9c0.3-0.3,0.5-0.6,0.8-0.9c0.3-0.3,0.5-0.6,0.8-0.9
		c0.3-0.3,0.6-0.5,0.9-0.8c0.3-0.3,0.5-0.5,0.8-0.8s0.6-0.5,0.9-0.7c0.3-0.3,0.6-0.5,0.9-0.8c0.3-0.3,0.7-0.5,1-0.8
		c0.3-0.2,0.5-0.4,0.8-0.6c0.4-0.3,0.9-0.6,1.3-0.8c0.2-0.1,0.4-0.3,0.6-0.4c0.4-0.3,0.9-0.5,1.3-0.7c0.2-0.1,0.5-0.3,0.7-0.4
		c0.5-0.2,0.9-0.4,1.4-0.7c0.2-0.1,0.4-0.2,0.7-0.3c0.5-0.2,0.9-0.4,1.4-0.5c0.2-0.1,0.5-0.2,0.7-0.3c0.5-0.2,1-0.3,1.5-0.5
		c0.2-0.1,0.5-0.2,0.7-0.2c0.5-0.1,1-0.3,1.5-0.4c0.2-0.1,0.5-0.1,0.7-0.2c0.5-0.1,0.9-0.2,1.4-0.2c0.3,0,0.6-0.1,0.9-0.1
		c0.8-0.1,1.5-0.2,2.3-0.2c0,0,0,0,0.1,0c0.8-0.1,1.6-0.1,2.4-0.1c6.8,0,13.4,2,19.1,5.7c2.7,1.8,5.2,4,7.4,6.5
		c5.5,6.4,8.6,14.7,8.6,23.2C202.7,83.6,186.9,99.4,167.6,99.4z M60.1,28.6c0.1-0.1,0.2-0.2,0.3-0.4c17-11.1,37.2-17.5,58.9-17.5
		c14.2,0,28,2.7,40.9,8c-0.2,0-0.3,0.1-0.5,0.1c-1.5,0.3-2.9,0.6-4.3,1c-0.2,0.1-0.4,0.1-0.6,0.2c-1.4,0.4-2.7,0.9-4,1.4
		c-0.2,0.1-0.4,0.1-0.5,0.2c-1.4,0.6-2.7,1.2-4,1.9c-0.3,0.1-0.5,0.3-0.8,0.4c-1.3,0.7-2.5,1.5-3.7,2.3c-0.2,0.1-0.4,0.3-0.5,0.4
		c-1.2,0.8-2.3,1.7-3.3,2.6c-0.1,0.1-0.2,0.2-0.4,0.3c-1.1,1-2.2,2-3.2,3.1c-0.2,0.2-0.4,0.4-0.6,0.7c-1,1.1-1.9,2.2-2.8,3.4
		c-0.1,0.2-0.3,0.4-0.4,0.6c-0.8,1.2-1.6,2.4-2.4,3.7c0,0.1-0.1,0.1-0.1,0.2l-47.3,70.7L60.5,83.5c0-0.1-0.1-0.1-0.2-0.2
		c-0.6-0.7-9.8-12.7-9.8-28.5C50.5,46.7,52.9,37.7,60.1,28.6z M60.9,212.6c-31.5-20.3-50.3-54.8-50.3-92.4c0-29.5,11.6-56.3,30.5-76
		c-0.8,3.6-1.1,7.1-1.1,10.4c0,5.3,0.8,10.1,1.9,14.2c3.2,11.8,9.2,19.8,10.1,21l24.7,34.4c0,0.1,0.1,0.1,0.1,0.2l36.9,51.6
		l-13.8,20.7c0,0.1-0.1,0.1-0.1,0.2C99.2,197.9,85,220.7,60.9,212.6z M82.4,223.3c12.8-3.9,22.1-13.7,26.3-20.7l15.8-23.7l10.8-16.3
		c0.1-0.1,0.1-0.2,0.2-0.3c0.1-0.2,12.3-20.9,33.4-20.9c19.3,0,35.1,15.9,35.1,35.4c0,1,0,2-0.1,2.9c-0.5,6.8-3,13.1-7.1,18.5
		c-7.3,9.5-29.3,31.5-77.6,31.5C106.6,229.7,94.2,227.5,82.4,223.3z"/>
</g>
</svg>
