<?xml version="1.0" standalone="no"?>
<!DOCTYPE svg PUBLIC "-//W3C//DTD SVG 20010904//EN"
 "http://www.w3.org/TR/2001/REC-SVG-20010904/DTD/svg10.dtd">
<svg version="1.0" xmlns="http://www.w3.org/2000/svg"
 width="707.000000pt" height="314.000000pt" viewBox="0 0 707.000000 314.000000"
 preserveAspectRatio="xMidYMid meet">

<g transform="translate(0.000000,314.000000) scale(0.100000,-0.100000)"
fill="#000000" stroke="none">
<path d="M0 1570 l0 -1570 3535 0 3535 0 0 1570 0 1570 -3535 0 -3535 0 0
-1570z m298 1548 c16 -16 16 -160 0 -176 -7 -7 -42 -12 -88 -12 -46 0 -81 5
-88 12 -16 16 -16 160 0 176 16 16 160 16 176 0z m4784 5 c-860 -2 -2264 -2
-3120 0 -856 1 -153 2 1563 2 1716 0 2417 -1 1557 -2z m1846 -5 c7 -7 12 -42
12 -88 0 -46 -5 -81 -12 -88 -7 -7 -42 -12 -88 -12 -46 0 -81 5 -88 12 -7 7
-12 42 -12 88 0 46 5 81 12 88 16 16 160 16 176 0z m-6630 -400 c16 -16 16
-160 0 -176 -7 -7 -42 -12 -88 -12 -46 0 -81 5 -88 12 -16 16 -16 160 0 176
16 16 160 16 176 0z m6630 0 c7 -7 12 -42 12 -88 0 -46 -5 -81 -12 -88 -7 -7
-42 -12 -88 -12 -46 0 -81 5 -88 12 -7 7 -12 42 -12 88 0 46 5 81 12 88 16 16
160 16 176 0z m-6630 -400 c16 -16 16 -160 0 -176 -7 -7 -42 -12 -88 -12 -46
0 -81 5 -88 12 -16 16 -16 160 0 176 7 7 42 12 88 12 46 0 81 -5 88 -12z
m6630 0 c7 -7 12 -42 12 -88 0 -46 -5 -81 -12 -88 -7 -7 -42 -12 -88 -12 -46
0 -81 5 -88 12 -7 7 -12 42 -12 88 0 46 5 81 12 88 7 7 42 12 88 12 46 0 81
-5 88 -12z m-6630 -400 c16 -16 16 -160 0 -176 -7 -7 -42 -12 -88 -12 -46 0
-81 5 -88 12 -16 16 -16 160 0 176 7 7 42 12 88 12 46 0 81 -5 88 -12z m6630
0 c7 -7 12 -42 12 -88 0 -46 -5 -81 -12 -88 -7 -7 -42 -12 -88 -12 -46 0 -81
5 -88 12 -7 7 -12 42 -12 88 0 46 5 81 12 88 7 7 42 12 88 12 46 0 81 -5 88
-12z m-6630 -400 c16 -16 16 -160 0 -176 -7 -7 -42 -12 -88 -12 -46 0 -81 5
-88 12 -16 16 -16 160 0 176 7 7 42 12 88 12 46 0 81 -5 88 -12z m6630 0 c7
-7 12 -42 12 -88 0 -46 -5 -81 -12 -88 -7 -7 -42 -12 -88 -12 -46 0 -81 5 -88
12 -7 7 -12 42 -12 88 0 46 5 81 12 88 7 7 42 12 88 12 46 0 81 -5 88 -12z
m-6630 -400 c16 -16 16 -160 0 -176 -7 -7 -42 -12 -88 -12 -46 0 -81 5 -88 12
-16 16 -16 160 0 176 7 7 42 12 88 12 46 0 81 -5 88 -12z m6630 0 c7 -7 12
-42 12 -88 0 -46 -5 -81 -12 -88 -7 -7 -42 -12 -88 -12 -46 0 -81 5 -88 12 -7
7 -12 42 -12 88 0 46 5 81 12 88 7 7 42 12 88 12 46 0 81 -5 88 -12z m-6630
-400 c16 -16 16 -160 0 -176 -7 -7 -42 -12 -88 -12 -46 0 -81 5 -88 12 -16 16
-16 160 0 176 7 7 42 12 88 12 46 0 81 -5 88 -12z m6630 0 c7 -7 12 -42 12
-88 0 -46 -5 -81 -12 -88 -7 -7 -42 -12 -88 -12 -46 0 -81 5 -88 12 -7 7 -12
42 -12 88 0 46 5 81 12 88 7 7 42 12 88 12 46 0 81 -5 88 -12z m-6630 -400
c16 -16 16 -160 0 -176 -7 -7 -42 -12 -88 -12 -46 0 -81 5 -88 12 -16 16 -16
160 0 176 16 16 160 16 176 0z m6630 0 c7 -7 12 -42 12 -88 0 -46 -5 -81 -12
-88 -7 -7 -42 -12 -88 -12 -46 0 -81 5 -88 12 -7 7 -12 42 -12 88 0 46 5 81
12 88 16 16 160 16 176 0z"/>
</g>
</svg>
