<?xml version="1.0" encoding="UTF-8"?> <svg xmlns="http://www.w3.org/2000/svg" fill="none" height="766" viewBox="0 0 705 766" width="705"><path d="m34.5054 316.186c-20.8711 14.677-34.5054 38.915-34.5054 66.376 0 27.216 13.3896 51.314 33.946 65.991l544.954 317.447c75.793-80.316 126.065-221.859 126.065-382.982 0-161.124-50.272-302.7017-126.065-383.018z" fill="#fdbd00"></path><g fill="#252728"><path d="m350.857 417.939c-10.383 0-14.963 4.588-14.963 11.944s6.118 11.629 17.725 11.629c16.815 0 25.381-7.356 25.381-18.354v-5.219zm6.398-46.235c-15.593 0-23.843 6.725-29.646 11.944l-22.934-24.484c12.236-11.944 25.975-21.436 56.53-21.436 33.317 0 58.663 18.073 58.663 59.09v74.116h-40.903l.909-18.074c-9.789 14.992-21.081 20.806-38.491 20.806-23.843 0-45.833-10.718-45.833-41.016 0-27.846 21.081-39.195 53.174-39.195h30.241c-.595-15.026-7.936-21.751-21.71-21.751z"></path><path d="m521.881 380.565c-5.209-2.452-10.873-3.958-16.676-3.958-18.634 0-28.737 8.582-28.737 36.428v57.864h-41.253v-130.44h41.253l-.629 23.573c9.474-21.436 24.751-26.34 38.211-26.34 7.236 0 14.333 1.997 20.521 5.675 1.678 1.015 3.321 2.136 4.859 3.362.07.07 1.643 1.261 1.504 1.401.07.035-12.656 13.696-19.053 32.435z"></path><path d="m631.724 394.366c-1.818-14.396-11.013-22.978-27.199-22.978s-27.199 7.356-30.555 22.978zm-23.528 44.974c14.963 0 26.29-5.814 32.687-10.403l23.528 25.43c-12.515 11.033-28.422 19.299-55.621 19.299-46.461 0-76.387-28.161-76.387-68.267 0-39.51 31.464-67.671 71.807-67.671 46.742 0 72.123 34.886 69.081 80.526h-98.692c3.951 13.45 14.963 21.086 33.597 21.086z"></path><path d="m283.035 257.552h-40.938v213.348h40.938z"></path><path d="m229.232 257.665v35.062h-11.222c-12.166 0-22.025 6.655-22.025 25.534v29.002h28.667v32.505h-28.667v91.105h-39.085v-91.105h-20.556v-32.505h20.556v-27.811c0-40.035 27.234-61.787 61.11-61.787z"></path></g></svg> 